<svg width="30" height="30" viewBox="0 0 30 30" fill="none" xmlns="http://www.w3.org/2000/svg">
<g id="caret-left-square-fill 1" clip-path="url(#clip0_171_294)">
<path id="Vector" d="M0 3.75C0 2.75544 0.395088 1.80161 1.09835 1.09835C1.80161 0.395088 2.75544 0 3.75 0L26.25 0C27.2446 0 28.1984 0.395088 28.9016 1.09835C29.6049 1.80161 30 2.75544 30 3.75V26.25C30 27.2446 29.6049 28.1984 28.9016 28.9016C28.1984 29.6049 27.2446 30 26.25 30H3.75C2.75544 30 1.80161 29.6049 1.09835 28.9016C0.395088 28.1984 0 27.2446 0 26.25V3.75ZM19.6875 22.5V7.5C19.6875 7.31929 19.6354 7.14241 19.5372 6.99066C19.4391 6.83891 19.2992 6.71876 19.1344 6.64467C18.9695 6.57058 18.7868 6.5457 18.6082 6.57304C18.4296 6.60037 18.2626 6.67876 18.1275 6.79875L9.69 14.2987C9.59087 14.3867 9.51151 14.4947 9.45716 14.6156C9.40282 14.7364 9.37472 14.8675 9.37472 15C9.37472 15.1325 9.40282 15.2636 9.45716 15.3844C9.51151 15.5053 9.59087 15.6133 9.69 15.7012L18.1275 23.2013C18.2626 23.3212 18.4296 23.3996 18.6082 23.427C18.7868 23.4543 18.9695 23.4294 19.1344 23.3553C19.2992 23.2812 19.4391 23.1611 19.5372 23.0093C19.6354 22.8576 19.6875 22.6807 19.6875 22.5Z" fill="black"/>
</g>
<defs>
<clipPath id="clip0_171_294">
<rect width="30" height="30" fill="white"/>
</clipPath>
</defs>
</svg>
